<?xml version="1.0" standalone="no"?>
<!DOCTYPE svg PUBLIC "-//W3C//DTD SVG 20010904//EN"
 "http://www.w3.org/TR/2001/REC-SVG-20010904/DTD/svg10.dtd">
<svg version="1.0" xmlns="http://www.w3.org/2000/svg"
 width="977.000000pt" height="1280.000000pt" viewBox="0 0 977.000000 1280.000000"
 preserveAspectRatio="xMidYMid meet">
<metadata>
Created by potrace 1.16, written by Peter Selinger 2001-2019
</metadata>
<g transform="translate(0.000000,1280.000000) scale(0.100000,-0.100000)"
fill="#000000" stroke="none">
<path d="M4520 11436 c-63 -21 -99 -45 -134 -94 -45 -60 -44 -58 -93 -117 -23
-27 -53 -74 -67 -104 -13 -30 -30 -57 -36 -61 -6 -4 -12 -20 -13 -36 -1 -16
-4 -31 -7 -34 -3 -3 -11 -18 -18 -35 l-13 -30 25 30 c14 17 25 36 26 43 0 6 5
12 10 12 6 0 10 6 10 14 0 20 160 155 192 163 73 16 74 16 13 -25 -63 -43
-139 -112 -131 -119 2 -3 22 7 43 21 46 31 67 35 27 4 -16 -12 -33 -25 -38
-30 -11 -9 48 7 66 18 7 5 44 11 82 15 37 3 71 11 75 17 13 21 60 32 86 20 30
-14 32 -24 5 -31 -13 -3 -18 -10 -14 -21 5 -12 -1 -16 -24 -16 -16 0 -35 -6
-41 -14 -6 -7 -32 -16 -58 -20 -58 -8 -103 -27 -103 -43 0 -18 42 -16 89 3 22
8 52 14 68 12 26 -4 25 -5 -12 -12 -22 -4 -47 -11 -55 -15 -9 -5 -29 -11 -45
-15 -17 -4 -41 -15 -55 -26 l-25 -19 35 1 c19 1 46 9 60 19 14 9 36 21 50 25
22 6 23 5 11 -10 -11 -13 -11 -16 0 -16 14 0 -50 -59 -64 -60 -13 0 -93 -63
-111 -87 -14 -19 -14 -22 -1 -17 8 3 15 10 15 14 0 12 105 60 130 60 12 0 30
5 41 11 11 6 25 9 30 7 6 -2 -9 -14 -34 -26 -38 -19 -88 -53 -134 -92 -7 -6
-16 -9 -19 -8 -19 8 -63 -153 -58 -212 2 -25 -4 -92 -12 -150 -10 -68 -13
-129 -9 -173 9 -91 -22 -219 -86 -352 -26 -55 -45 -86 -42 -70 5 26 0 22 -39
-30 -24 -33 -63 -91 -86 -130 -23 -38 -42 -62 -42 -54 -1 24 -30 -22 -30 -47
0 -13 -5 -26 -11 -29 -5 -4 -8 -12 -6 -18 2 -7 -4 -29 -14 -49 -21 -42 -25
-76 -5 -39 l13 24 12 -33 c6 -18 11 -41 11 -51 0 -11 4 -19 9 -19 5 0 12 -24
16 -52 4 -29 13 -62 20 -73 7 -11 16 -35 19 -53 11 -48 26 -49 27 0 1 40 2 38
19 -32 10 -41 21 -92 25 -114 10 -57 20 -34 18 42 -2 63 -1 65 9 32 l12 -35 5
35 6 35 14 -35 c7 -19 16 -44 21 -55 4 -11 12 -31 18 -45 19 -44 104 -294 109
-320 2 -14 11 -52 19 -85 15 -65 24 -301 11 -282 -5 7 -6 0 -2 -17 22 -102
-211 -418 -365 -494 -70 -34 -134 -33 -207 4 -29 14 -52 29 -51 33 2 20 -4 31
-18 31 -11 0 -15 6 -12 18 3 11 -3 36 -13 57 -11 21 -19 48 -19 59 l-1 21 -17
-21 c-20 -24 -48 -101 -40 -109 3 -3 19 -7 37 -8 17 -1 31 -5 31 -9 0 -8 -23
-12 -53 -10 -15 2 -18 -5 -15 -41 2 -35 7 -43 26 -45 12 -2 22 -7 22 -12 0 -4
11 -11 24 -14 13 -3 34 -21 45 -40 26 -42 26 -46 0 -46 -13 0 -18 4 -13 13 4
6 4 9 -1 5 -4 -4 -14 -3 -22 4 -7 6 -16 8 -19 5 -3 -3 10 -16 30 -29 20 -13
36 -28 36 -34 0 -7 19 -29 42 -50 23 -21 35 -35 26 -31 -9 3 -19 1 -21 -6 -5
-15 -217 200 -217 221 0 24 -73 130 -93 136 -17 4 -18 11 -12 54 5 37 3 51 -8
61 -18 14 -33 -2 -20 -21 4 -7 6 -21 5 -30 -4 -25 29 -96 72 -151 l37 -49 -32
19 c-43 24 -128 110 -159 161 -18 30 -30 40 -43 36 -10 -3 -57 -13 -105 -23
-48 -10 -99 -25 -114 -35 -27 -17 -48 -62 -48 -99 0 -16 3 -17 15 -7 8 7 25
10 38 6 90 -22 183 -247 207 -496 9 -91 34 -198 59 -255 11 -25 37 -110 45
-150 18 -88 18 -97 -15 -200 -8 -26 -13 -114 -14 -247 -1 -119 -7 -213 -12
-220 -9 -12 -32 -314 -30 -398 0 -19 -4 -123 -10 -230 -6 -118 -7 -218 -2
-250 5 -30 11 -161 13 -290 2 -129 11 -298 20 -375 21 -184 20 -253 -5 -350
-11 -44 -24 -119 -30 -168 -5 -48 -13 -95 -18 -105 -6 -9 -17 -53 -27 -97 -9
-44 -22 -91 -29 -105 -11 -22 -16 -46 -31 -150 -4 -29 -61 -241 -94 -350 -38
-129 -50 -172 -65 -255 -8 -44 -22 -111 -31 -150 -9 -38 -20 -92 -24 -120 -5
-27 -11 -61 -14 -75 -3 -14 -11 -61 -17 -105 -15 -116 -26 -192 -38 -259 -6
-32 -9 -62 -6 -65 2 -4 0 -25 -5 -47 -9 -41 -19 -191 -25 -379 -5 -141 11
-458 26 -509 6 -22 29 -78 51 -124 60 -126 78 -241 82 -537 2 -132 7 -306 11
-386 6 -106 5 -148 -4 -153 -7 -5 -11 4 -11 26 0 31 -15 68 -22 58 -2 -3 -11
-21 -21 -40 -15 -29 -17 -31 -12 -9 6 31 -16 45 -46 29 -20 -11 -24 -29 -20
-90 3 -43 -11 -31 -29 22 -20 64 -19 128 1 139 14 7 17 17 12 42 -3 17 -10 35
-15 38 -13 9 -30 138 -24 181 4 20 2 39 -3 42 -5 4 -12 24 -16 47 -4 22 -17
59 -30 82 -13 23 -26 57 -30 75 -4 18 -9 31 -12 28 -6 -5 -7 -19 -11 -101 -1
-22 -7 -35 -15 -35 -9 0 -12 -9 -9 -29 3 -23 -2 -36 -23 -55 -16 -15 -22 -26
-16 -26 9 0 10 -9 5 -33 -4 -17 -6 -64 -5 -104 1 -39 -2 -80 -8 -90 -7 -14 -4
-35 9 -76 11 -32 21 -92 24 -135 3 -49 11 -89 23 -110 l18 -32 2248 0 2247 0
0 44 c0 23 -3 71 -6 105 -7 60 -8 62 -32 56 -18 -4 -23 -3 -19 8 4 10 -1 13
-16 11 -87 -12 -98 -16 -93 -30 5 -14 -4 -18 -36 -15 -9 1 -33 -7 -54 -19 -40
-21 -64 -26 -64 -12 2 25 71 113 98 123 14 5 22 17 22 32 0 13 15 39 33 58 17
19 38 46 44 62 7 15 19 27 28 27 17 0 20 16 5 25 -14 9 -12 105 3 135 10 19
20 25 45 24 l32 -2 -19 27 c-26 37 -33 78 -22 134 6 33 5 58 -2 78 -9 22 -9
34 1 49 10 16 9 21 -7 29 -11 6 -21 27 -25 52 -5 29 -12 43 -26 46 -14 4 -20
14 -20 34 0 30 -19 79 -30 79 -3 0 -11 -27 -18 -60 -6 -32 -17 -74 -25 -92
-33 -78 -46 -141 -66 -330 -12 -104 -40 -195 -70 -222 -17 -15 -17 -14 -13 39
5 60 -9 74 -27 28 -10 -27 -10 -27 -9 9 2 22 -4 44 -14 55 -26 29 -28 93 -3
93 19 0 19 14 0 30 -13 11 -13 15 -3 22 10 6 10 10 1 16 -29 19 -14 364 27
597 35 202 54 247 117 282 56 31 114 20 266 -49 65 -30 67 -32 67 -68 0 -43
-18 -100 -31 -100 -5 0 -9 -9 -9 -21 0 -12 5 -19 13 -17 19 6 47 69 47 106 0
26 5 35 20 39 34 9 18 25 -56 55 -38 15 -73 33 -79 40 -5 7 -21 14 -34 16 -14
1 -58 18 -98 38 -65 31 -72 37 -63 54 8 15 6 22 -8 32 -17 12 -18 18 -6 73 28
128 53 442 55 690 2 171 -13 392 -29 422 -5 10 -12 67 -16 126 -3 59 -10 116
-16 127 -5 10 -10 38 -10 62 0 24 -5 61 -11 83 -12 49 -27 150 -34 226 -2 31
-10 70 -16 85 -6 16 -15 57 -20 92 -5 34 -13 90 -18 125 -5 34 -14 75 -20 90
-6 16 -11 37 -11 49 0 11 -16 53 -35 94 -19 40 -35 81 -35 91 0 10 -9 32 -20
48 -33 50 -21 87 33 108 25 9 13 74 -19 104 -30 29 -39 92 -27 185 6 40 8 89
6 109 -3 24 2 51 16 79 14 30 21 63 21 106 0 34 4 96 10 136 5 40 11 135 14
210 3 75 9 145 15 156 5 10 13 92 16 183 3 90 10 182 15 204 14 61 32 301 26
332 -3 16 -8 60 -11 98 -3 39 -9 104 -15 145 -5 41 -8 143 -6 225 3 89 0 167
-7 192 -9 36 -6 69 21 215 30 166 115 580 167 814 34 153 34 158 -15 178 -22
9 -59 16 -82 16 -23 0 -56 5 -73 11 -40 15 -120 4 -144 -20 -9 -9 -32 -22 -51
-28 l-35 -11 35 -1 c21 -1 30 -4 23 -9 -9 -6 -7 -12 7 -25 11 -9 24 -17 28
-17 4 0 28 -29 54 -63 42 -56 47 -68 50 -125 3 -53 1 -62 -14 -62 -9 0 -29
-11 -44 -25 -16 -14 -53 -33 -85 -43 -49 -14 -58 -21 -69 -49 -23 -67 -183
-213 -231 -213 -11 0 -33 -26 -60 -75 -23 -41 -49 -77 -56 -79 -15 -6 -12 0
17 44 10 14 26 46 37 71 l20 46 -24 -5 c-26 -5 -76 -71 -72 -94 4 -16 -16 -53
-40 -77 -17 -17 -20 -17 -39 -2 -20 14 -21 20 -10 54 11 34 10 39 -10 53 -33
23 -27 54 27 162 98 198 98 236 -5 351 -26 29 -83 76 -128 106 -135 89 -200
167 -300 360 -25 50 -66 217 -65 265 1 17 4 12 10 -15 17 -81 30 -115 40 -109
6 3 7 -5 3 -22 -5 -18 -3 -25 3 -21 7 4 24 -27 44 -76 47 -119 87 -196 125
-243 34 -43 123 -108 133 -98 3 3 1 8 -4 12 -6 4 -29 44 -51 89 -30 57 -39 84
-31 92 7 7 7 18 -1 35 -6 13 -8 33 -5 44 3 12 -1 38 -8 59 -7 21 -14 48 -15
61 -2 13 -12 39 -23 58 -12 19 -21 44 -21 55 0 11 -4 18 -9 14 -10 -6 -16 10
-25 65 l-6 35 14 -30 c16 -34 25 -22 25 35 0 71 0 72 27 67 13 -2 24 -3 24 -2
0 1 -16 55 -36 121 -20 65 -44 153 -53 194 -10 41 -23 85 -29 97 -7 12 -12 30
-12 39 0 16 1 16 15 -2 15 -18 15 -18 14 6 -1 14 -1 41 0 60 l2 35 19 -24 c11
-13 20 -30 20 -38 0 -8 5 -11 11 -7 8 4 10 34 7 86 -6 92 15 346 35 433 l14
60 11 -75 10 -75 -4 95 c-8 179 -10 192 -26 204 -9 7 -38 32 -63 55 -48 45
-54 66 -10 37 37 -25 30 -2 -9 28 -24 18 -36 22 -39 13 -4 -9 -7 -9 -18 1 -7
6 -22 12 -32 12 -10 0 -34 7 -53 16 -19 9 -37 14 -40 11 -4 -3 1 -25 9 -49 45
-129 56 -316 25 -418 -19 -61 -75 -158 -125 -216 -37 -42 -40 -63 -18 -138 12
-40 15 -97 13 -256 -3 -187 -5 -207 -23 -232 -41 -56 -199 -99 -389 -105 -154
-6 -157 -5 -151 56 3 25 -2 42 -16 56 -20 23 -37 85 -22 85 5 0 9 17 8 39 0
24 -4 37 -11 34 -9 -3 -9 8 -1 42 l11 47 40 -7 c23 -3 61 -7 86 -8 40 -2 45 1
48 20 2 12 11 25 20 28 9 3 25 17 35 30 17 24 17 25 0 25 -10 0 -47 -7 -83
-16 -79 -18 -220 -8 -220 16 0 9 -40 25 -54 22 -10 -3 -117 36 -132 49 -7 5
-37 14 -68 19 -59 9 -135 57 -152 95 -5 11 -19 24 -31 30 -12 5 -24 19 -25 30
-2 14 -10 19 -25 18 -15 -2 -21 3 -21 15 1 9 -4 43 -10 75 -10 49 -9 64 4 89
11 21 21 29 34 25 24 -6 16 17 -22 61 -15 18 -28 41 -28 52 0 10 -5 22 -10 25
-6 4 -9 60 -7 145 4 180 4 181 131 177 95 -2 155 14 200 55 27 24 9 23 -45 -4
-24 -12 -60 -22 -81 -22 -20 -1 -34 -4 -31 -8 6 -11 -9 -10 -27 2 -18 11 -6
16 59 23 24 3 49 11 55 17 8 8 0 9 -33 4 -32 -5 -42 -4 -37 4 4 7 17 12 30 12
29 0 46 18 46 48 0 30 31 27 45 -6 7 -16 18 -22 42 -22 31 0 32 -1 28 -41 l-4
-41 42 7 c30 4 38 3 27 -4 -15 -10 -16 -10 35 -26 26 -8 29 56 5 136 -21 68
-28 80 -103 154 l-81 80 -115 0 c-72 0 -116 4 -118 11 -2 5 8 32 23 59 33 64
49 113 65 203 11 65 17 79 54 115 51 51 89 79 124 91 14 5 35 17 46 26 38 34
108 64 159 68 48 4 55 1 106 -38 30 -24 61 -50 68 -59 39 -50 71 -86 105 -118
20 -20 37 -42 37 -49 0 -7 9 -18 20 -24 20 -11 27 -2 11 16 -15 16 -21 73 -9
80 7 5 5 10 -8 14 -11 4 -24 18 -30 31 -15 32 -43 97 -61 137 -23 55 5 26 37
-38 16 -32 34 -61 40 -65 11 -7 3 22 -11 41 -32 41 -71 134 -75 175 -4 47 -3
49 20 49 37 0 40 17 6 35 -37 19 -38 30 -2 43 49 18 -61 14 -114 -4 -26 -9
-60 -14 -76 -12 -16 3 -31 1 -34 -4 -3 -4 -10 -8 -16 -8 -6 0 -3 10 8 22 19
21 19 21 -5 15 -18 -4 -12 6 30 49 30 30 61 56 69 59 9 3 24 21 35 41 15 28
16 37 6 43 -10 6 -10 10 -2 16 39 23 -114 85 -211 85 -47 0 -87 -34 -83 -71 4
-32 -46 -59 -76 -41 -12 8 -20 8 -25 1 -3 -6 -12 -8 -20 -5 -8 3 -14 -1 -14
-9 0 -8 -4 -15 -10 -15 -5 0 -10 5 -10 11 0 6 -9 9 -20 6 -21 -5 -37 8 -21 17
5 3 7 15 4 26 -7 25 15 53 38 47 9 -3 23 -1 30 4 40 26 -73 38 -141 15z
m-1032 -5881 c0 -56 5 -83 27 -135 26 -61 27 -69 17 -129 -12 -69 -6 -109 44
-341 46 -209 63 -323 70 -455 6 -120 5 -137 -19 -227 -28 -105 -61 -174 -160
-342 -53 -89 -196 -281 -203 -273 -1 1 8 39 21 84 22 75 76 309 111 478 10 47
18 186 24 420 5 193 15 427 24 520 8 94 18 244 22 333 4 96 10 158 15 150 5
-7 8 -44 7 -83z m3110 -350 c-3 -182 -12 -356 -23 -468 -16 -154 -17 -193 -7
-285 16 -144 73 -479 117 -686 19 -93 34 -170 32 -172 -6 -7 -147 286 -208
431 -79 191 -93 251 -93 410 0 96 7 170 27 280 28 160 72 444 82 535 4 30 21
116 38 190 39 166 40 160 35 -235z"/>
<path d="M5340 10481 c0 -4 -37 -16 -82 -25 -44 -9 -97 -24 -117 -33 -38 -19
-52 -50 -29 -65 19 -13 90 0 151 26 28 13 71 27 95 31 47 8 53 22 19 53 -25
23 -37 28 -37 13z"/>
<path d="M5369 10346 c-2 -2 -43 -6 -91 -9 -49 -2 -94 -9 -100 -14 -7 -6 -20
-12 -29 -16 -26 -9 -51 -72 -43 -112 5 -28 11 -35 30 -35 15 0 24 -6 24 -15 0
-21 41 -35 98 -34 64 1 104 17 45 18 -47 1 -55 12 -20 29 21 10 21 11 -7 11
-38 1 -25 13 27 26 32 8 43 15 45 33 2 12 7 22 12 22 5 0 7 -7 4 -15 -4 -10 0
-15 15 -15 12 0 32 -7 45 -15 21 -14 24 -14 36 0 10 12 16 13 27 4 7 -7 16
-10 18 -7 8 8 -46 108 -55 103 -5 -3 -17 6 -26 20 -14 22 -43 33 -55 21z"/>
<path d="M4752 9807 c-30 -32 -44 -83 -36 -134 6 -42 7 -43 45 -43 27 0 51 -9
78 -28 l39 -28 -74 -23 c-44 -14 -85 -21 -99 -17 -33 8 -75 -3 -75 -19 0 -7
-5 -15 -12 -17 -14 -5 60 -78 79 -78 7 0 16 -6 19 -14 3 -8 18 -16 35 -20 16
-3 41 -13 56 -23 53 -35 205 -57 240 -35 20 13 -20 41 -50 35 -13 -3 -28 0
-31 6 -4 6 -17 11 -30 11 -12 0 -31 7 -42 15 -18 14 -17 14 14 15 38 0 40 23
4 28 -12 2 -22 7 -22 12 0 5 -12 8 -27 7 -22 -2 -29 3 -31 21 -4 25 1 27 28
12 13 -7 19 -6 24 5 6 18 37 20 54 3 9 -9 16 -7 31 6 12 11 32 17 53 15 20 -2
44 4 58 14 28 19 56 22 65 6 5 -7 14 -4 27 7 15 15 23 16 38 6 12 -7 21 -8 25
-2 10 15 35 12 35 -5 0 -23 37 -18 107 16 59 29 88 58 43 44 -10 -3 -43 -8
-72 -10 -214 -13 -276 -19 -298 -27 -27 -10 -152 0 -145 12 3 4 24 12 47 18
24 6 52 17 62 25 27 20 14 47 -22 47 -18 0 -36 9 -50 25 -24 27 -69 33 -116
16 -36 -14 -50 7 -44 69 3 28 2 50 -2 50 -3 0 -16 -11 -28 -23z"/>
<path d="M3984 8867 c-1 -109 -5 -142 -23 -187 -11 -30 -21 -67 -21 -82 0 -16
-4 -28 -10 -28 -5 0 -7 -7 -4 -15 3 -8 -2 -37 -11 -65 -9 -28 -18 -63 -20 -78
l-3 -26 20 24 c10 14 25 32 31 40 16 20 35 68 42 105 2 17 9 44 13 60 9 29 1
369 -9 379 -2 2 -5 -55 -5 -127z"/>
<path d="M4077 8465 c-21 -45 -23 -72 -3 -56 11 9 12 5 6 -26 -10 -48 -20 -73
-31 -73 -4 0 -2 18 6 39 12 34 12 41 -1 51 -15 13 -21 1 -47 -84 -7 -21 -25
-49 -42 -63 -16 -13 -44 -36 -61 -51 -17 -15 -56 -42 -86 -60 -42 -26 -61 -46
-83 -88 -15 -29 -31 -51 -36 -49 -4 3 -5 -3 -2 -14 3 -10 0 -22 -6 -25 -29
-18 2 -115 58 -178 39 -45 102 -58 156 -32 96 45 183 215 186 362 1 36 3 41 8
22 6 -22 8 -23 14 -7 4 10 7 28 6 40 0 12 -3 16 -6 10 -2 -7 -9 -13 -14 -13
-11 0 -12 27 0 32 4 2 11 25 13 52 4 30 2 43 -3 35 -5 -8 -9 -26 -9 -40 0 -14
-3 -29 -7 -33 -5 -4 -13 -26 -20 -49 l-12 -42 4 49 c2 26 8 53 14 59 14 14 14
47 1 47 -12 0 -1 62 13 71 9 6 13 136 5 145 -3 2 -12 -12 -21 -31z"/>
<path d="M6456 7668 c-3 -7 -7 -42 -10 -78 -3 -44 -15 -87 -35 -130 -29 -61
-44 -119 -21 -79 5 9 24 19 42 23 53 10 208 152 208 190 0 6 -23 17 -52 24
-29 6 -69 23 -90 37 -27 18 -40 22 -42 13z"/>
<path d="M2312 1854 c-19 -13 -22 -24 -22 -77 0 -34 -7 -87 -15 -117 -8 -30
-14 -80 -13 -110 1 -30 2 -226 2 -436 1 -294 -2 -384 -12 -396 -7 -9 -12 -37
-11 -64 3 -126 -1 -498 -6 -571 l-7 -83 196 0 196 0 -21 42 c-11 24 -30 63
-41 88 -12 25 -24 52 -28 60 -4 8 -15 14 -23 12 -19 -3 -35 81 -20 101 6 6 13
33 16 58 6 44 4 49 -33 88 -45 47 -61 74 -69 114 l-6 29 -30 -26 c-30 -26 -69
-34 -80 -16 -6 10 17 196 34 272 5 24 21 113 36 198 14 85 33 191 42 235 14
70 14 99 3 240 -9 120 -9 184 -1 257 6 54 11 102 11 108 0 16 -73 12 -98 -6z"/>
<path d="M2494 1735 c-3 -14 -10 -23 -14 -20 -5 3 -6 -4 -3 -15 3 -11 -1 -30
-10 -43 -8 -12 -17 -47 -21 -77 -10 -80 -14 -269 -6 -240 5 14 9 18 9 10 1
-13 2 -13 12 0 8 12 10 8 7 -16 -4 -31 -3 -31 18 -18 12 8 26 14 30 13 24 -4
33 3 39 31 4 17 11 30 16 30 5 0 9 29 9 65 0 36 -4 65 -9 65 -9 0 -16 29 -33
158 -8 56 -15 82 -24 82 -8 0 -16 -11 -20 -25z"/>
</g>
</svg>
